<?xml version="1.0" encoding="UTF-8"?>
<svg width="170px" height="43px" viewBox="0 0 170 43" version="1.1" xmlns="http://www.w3.org/2000/svg" xmlns:xlink="http://www.w3.org/1999/xlink">
    <!-- Generator: Sketch 43.2 (39069) - http://www.bohemiancoding.com/sketch -->
    <title>Artboard</title>
    <desc>Created with Sketch.</desc>
    <defs></defs>
    <g id="Page-1" stroke="none" stroke-width="1" fill="none" fill-rule="evenodd">
        <g id="Artboard">
            <path d="M2.09179688,7.859375 L6.90820312,7.859375 C9.22852723,7.859375 10.9160104,8.44530664 11.9707031,9.6171875 C13.0253959,10.8007872 13.5527344,12.6757684 13.5527344,15.2421875 C13.5527344,18.8515805 12.4921981,21.1835885 10.3710938,22.2382812 C9.30468217,22.7187524 7.76368195,22.9589844 5.74804688,22.9589844 L5.74804688,35 L2.09179688,35 L2.09179688,7.859375 Z M5.74804688,19.8300781 C7.25977318,19.8300781 8.3027315,19.5253937 8.87695312,18.9160156 C9.46289355,18.2949188 9.75585938,17.1933673 9.75585938,15.6113281 C9.75585938,13.9941325 9.47461219,12.8105506 8.91210938,12.0605469 C8.34960656,11.3105431 7.46484979,10.9355469 6.2578125,10.9355469 L5.74804688,10.9355469 L5.74804688,19.8300781 Z M26.0144531,16.8066406 L26.0144531,35 L22.6570312,35 L22.6570312,32.6621094 C22.1765601,33.6582081 21.6960961,34.3437481 21.215625,34.71875 C20.7351538,35.0937519 20.1023477,35.28125 19.3171875,35.28125 C17.8054612,35.28125 16.6980504,34.5078202 15.9949219,32.9609375 C15.2917933,31.4140548 14.9402344,28.9882978 14.9402344,25.6835938 C14.9402344,22.5312342 15.2917933,20.2138746 15.9949219,18.7314453 C16.6980504,17.249016 17.8054612,16.5078125 19.3171875,16.5078125 C20.7000069,16.5078125 21.813277,17.2929609 22.6570312,18.8632812 L22.6570312,16.8066406 L26.0144531,16.8066406 Z M18.4207031,25.8242188 C18.4207031,28.2148557 18.5789047,29.8847609 18.8953125,30.8339844 C19.2234391,31.7832079 19.7976521,32.2578125 20.6179687,32.2578125 C21.3679725,32.2578125 21.9128889,31.7656299 22.2527344,30.78125 C22.5925798,29.7265572 22.7625,28.1035266 22.7625,25.9121094 C22.7625,23.7089734 22.5925798,22.0800834 22.2527344,21.0253906 C21.9128889,20.0410107 21.3679725,19.5488281 20.6179687,19.5488281 C19.8210898,19.5488281 19.2527361,20.0175734 18.9128906,20.9550781 C18.584764,21.82227 18.4207031,23.4453006 18.4207031,25.8242188 Z M36.5601562,17.1757812 L36.5601562,20.3222656 C35.7398396,19.7128876 34.8785201,19.4082031 33.9761719,19.4082031 C33.6714828,19.4082031 33.3902356,19.460937 33.1324219,19.5664062 C32.8746081,19.6718755 32.6490244,19.8154288 32.455664,19.9970703 C32.2623037,20.1787118 32.1099615,20.3955066 31.9986328,20.6474609 C31.8873041,20.8994153 31.8316406,21.1660142 31.8316406,21.4472656 C31.8316406,22.3144575 32.616789,23.3456971 34.1871094,24.5410156 C34.819925,25.0332056 35.3472635,25.4902323 35.7691406,25.9121094 C36.1910177,26.3339865 36.5132801,26.73242 36.7359375,27.1074219 C37.192971,27.8457068 37.4214844,28.7773381 37.4214844,29.9023438 C37.4214844,31.5312581 36.9468797,32.8378857 35.9976562,33.8222656 C35.0601515,34.7949267 33.8003985,35.28125 32.2183594,35.28125 C31.2456982,35.28125 30.2613331,34.9941435 29.2652344,34.4199219 L29.2652344,31.1679688 C30.2378955,31.8945349 31.1578081,32.2578125 32.025,32.2578125 C33.5601639,32.2578125 34.3277344,31.5019607 34.3277344,29.9902344 C34.3277344,29.4277316 34.1871108,28.9414083 33.9058594,28.53125 C33.7769525,28.3320303 33.5718764,28.1005873 33.290625,27.8369141 C33.0093736,27.5732409 32.6636739,27.2773454 32.2535156,26.9492188 C30.8355398,25.8476507 29.8746119,24.9218788 29.3707031,24.171875 C28.8785131,23.3984336 28.6324219,22.4668023 28.6324219,21.3769531 C28.6324219,19.9121021 29.0835892,18.7109422 29.9859375,17.7734375 C30.9000045,16.8476516 32.0894458,16.3847656 33.5542969,16.3847656 C34.585552,16.3847656 35.5874951,16.6484349 36.5601562,17.1757812 Z M46.8421875,17.1757812 L46.8421875,20.3222656 C46.0218709,19.7128876 45.1605514,19.4082031 44.2582031,19.4082031 C43.9535141,19.4082031 43.6722669,19.460937 43.4144531,19.5664062 C43.1566393,19.6718755 42.9310556,19.8154288 42.7376953,19.9970703 C42.5443349,20.1787118 42.3919927,20.3955066 42.280664,20.6474609 C42.1693353,20.8994153 42.1136718,21.1660142 42.1136718,21.4472656 C42.1136718,22.3144575 42.8988202,23.3456971 44.4691406,24.5410156 C45.1019563,25.0332056 45.6292947,25.4902323 46.0511718,25.9121094 C46.4730489,26.3339865 46.7953114,26.73242 47.0179687,27.1074219 C47.4750022,27.8457068 47.7035156,28.7773381 47.7035156,29.9023438 C47.7035156,31.5312581 47.228911,32.8378857 46.2796875,33.8222656 C45.3421828,34.7949267 44.0824297,35.28125 42.5003906,35.28125 C41.5277295,35.28125 40.5433643,34.9941435 39.5472656,34.4199219 L39.5472656,31.1679688 C40.5199267,31.8945349 41.4398394,32.2578125 42.3070312,32.2578125 C43.8421951,32.2578125 44.6097656,31.5019607 44.6097656,29.9902344 C44.6097656,29.4277316 44.469142,28.9414083 44.1878906,28.53125 C44.0589837,28.3320303 43.8539076,28.1005873 43.5726562,27.8369141 C43.2914048,27.5732409 42.9457051,27.2773454 42.5355468,26.9492188 C41.117571,25.8476507 40.1566431,24.9218788 39.6527343,24.171875 C39.1605444,23.3984336 38.9144531,22.4668023 38.9144531,21.3769531 C38.9144531,19.9121021 39.3656205,18.7109422 40.2679687,17.7734375 C41.1820358,16.8476516 42.371477,16.3847656 43.8363281,16.3847656 C44.8675832,16.3847656 45.8695264,16.6484349 46.8421875,17.1757812 Z M57.4394531,7.859375 L61.0957031,7.859375 L61.0957031,35 L57.4394531,35 L57.4394531,7.859375 Z M65.1902343,11.7089844 L68.5476562,11.7089844 L68.5476562,16.8066406 L70.3757812,16.8066406 L70.3757812,19.4785156 L68.5476562,19.4785156 L68.5476562,35 L65.1902343,35 L65.1902343,19.4785156 L63.3445312,19.4785156 L63.3445312,16.8066406 L65.1902343,16.8066406 L65.1902343,11.7089844 Z" id="Pass-It" fill="#333333"></path>
            <path d="M80.0917969,7.859375 L89.8652344,7.859375 L89.8652344,10.953125 L83.7480469,10.953125 L83.7480469,19.53125 L89.2675781,19.53125 L89.2675781,22.625 L83.7480469,22.625 L83.7480469,35 L80.0917969,35 L80.0917969,7.859375 Z M102.959766,26.0527344 C102.959766,32.2051089 101.055488,35.28125 97.246875,35.28125 C93.4382622,35.28125 91.5339844,32.1582344 91.5339844,25.9121094 C91.5339844,19.6425468 93.4324029,16.5078125 97.2292969,16.5078125 C98.2136768,16.5078125 99.0662073,16.6953106 99.7869141,17.0703125 C100.507621,17.4453144 101.102341,18.0253867 101.571094,18.8105469 C102.039846,19.5957071 102.388475,20.5859315 102.616992,21.78125 C102.845509,22.9765685 102.959766,24.4003824 102.959766,26.0527344 Z M99.4792969,25.9648438 C99.4792969,23.5742068 99.3210953,21.9101609 99.0046875,20.9726562 C98.6882797,20.0234328 98.1257853,19.5488281 97.3171875,19.5488281 C96.5203085,19.5488281 95.9519548,20.0175734 95.6121094,20.9550781 C95.2957015,21.8925828 95.1375,23.5273321 95.1375,25.859375 C95.1375,28.1914179 95.2957015,29.8203079 95.6121094,30.7460938 C95.9519548,31.6835984 96.5203085,32.1523438 97.3171875,32.1523438 C98.1140665,32.1523438 98.6707015,31.6894578 98.9871094,30.7636719 C99.315236,29.89648 99.4792969,28.2968867 99.4792969,25.9648438 Z M105.788672,16.8066406 L109.146094,16.8066406 L109.146094,19.0742188 C109.720315,18.1132764 110.288669,17.4394551 110.851172,17.0527344 C111.413675,16.6660137 112.157808,16.4433597 113.083594,16.3847656 L113.083594,19.9003906 C112.849218,19.8652342 112.650001,19.8476562 112.485937,19.8476562 C111.2789,19.8476562 110.417581,20.1582 109.901953,20.7792969 C109.398044,21.3886749 109.146094,22.4550705 109.146094,23.9785156 L109.146094,35 L105.788672,35 L105.788672,16.8066406 Z M114.365625,16.8066406 L117.916406,16.8066406 L118.935937,22.6601562 C119.135157,23.8320371 119.313866,24.9628852 119.47207,26.0527344 C119.630274,27.1425836 119.756249,28.2031198 119.85,29.234375 L119.902734,29.8671875 L119.973047,29.1992188 C120.066797,28.3554645 120.163476,27.5791051 120.263086,26.8701172 C120.362696,26.1611293 120.471093,25.5078155 120.588281,24.9101562 L120.869531,23.5214844 L122.117578,16.8066406 L124.560937,16.8066406 L125.738672,23.5214844 L126.125391,25.6308594 C126.207422,26.0292989 126.283593,26.5244111 126.353906,27.1162109 C126.424219,27.7080108 126.494531,28.4081991 126.564844,29.2167969 L126.635156,29.8671875 C126.846095,27.6874891 127.14492,25.5722759 127.531641,23.5214844 L128.779687,16.8066406 L132.084375,16.8066406 L127.812891,35 L125.492578,35 L124.103906,28.0566406 C123.939843,27.2128864 123.799219,26.3486372 123.682031,25.4638672 C123.564843,24.5790971 123.465235,23.6386769 123.383203,22.6425781 C123.371484,22.52539 123.359766,22.3847664 123.348047,22.2207031 C123.336328,22.0566398 123.31875,21.8632824 123.295312,21.640625 C123.225,22.7070366 123.125391,23.7412059 122.996484,24.7431641 C122.867577,25.7451222 122.709376,26.7441356 122.521875,27.7402344 L121.115625,35 L118.795312,35 L114.365625,16.8066406 Z M144.176953,16.8066406 L144.176953,35 L140.819531,35 L140.819531,32.6621094 C140.33906,33.6582081 139.858596,34.3437481 139.378125,34.71875 C138.897654,35.0937519 138.264848,35.28125 137.479687,35.28125 C135.967961,35.28125 134.86055,34.5078202 134.157422,32.9609375 C133.454293,31.4140548 133.102734,28.9882978 133.102734,25.6835938 C133.102734,22.5312342 133.454293,20.2138746 134.157422,18.7314453 C134.86055,17.249016 135.967961,16.5078125 137.479687,16.5078125 C138.862507,16.5078125 139.975777,17.2929609 140.819531,18.8632812 L140.819531,16.8066406 L144.176953,16.8066406 Z M136.583203,25.8242188 C136.583203,28.2148557 136.741405,29.8847609 137.057812,30.8339844 C137.385939,31.7832079 137.960152,32.2578125 138.780469,32.2578125 C139.530472,32.2578125 140.075389,31.7656299 140.415234,30.78125 C140.75508,29.7265572 140.925,28.1035266 140.925,25.9121094 C140.925,23.7089734 140.75508,22.0800834 140.415234,21.0253906 C140.075389,20.0410107 139.530472,19.5488281 138.780469,19.5488281 C137.98359,19.5488281 137.415236,20.0175734 137.075391,20.9550781 C136.747264,21.82227 136.583203,23.4453006 136.583203,25.8242188 Z M147.691406,16.8066406 L151.048828,16.8066406 L151.048828,19.0742188 C151.62305,18.1132764 152.191403,17.4394551 152.753906,17.0527344 C153.316409,16.6660137 154.060542,16.4433597 154.986328,16.3847656 L154.986328,19.9003906 C154.751952,19.8652342 154.552735,19.8476562 154.388672,19.8476562 C153.181635,19.8476562 152.320315,20.1582 151.804687,20.7792969 C151.300779,21.3886749 151.048828,22.4550705 151.048828,23.9785156 L151.048828,35 L147.691406,35 L147.691406,16.8066406 Z M167.60625,5.13476562 L167.60625,35 L164.248828,35 L164.248828,32.6621094 C163.768357,33.6582081 163.287893,34.3437481 162.807422,34.71875 C162.326951,35.0937519 161.688285,35.28125 160.891406,35.28125 C159.391399,35.28125 158.289847,34.5107499 157.586719,32.9697266 C156.88359,31.4287032 156.532031,29.0058759 156.532031,25.7011719 C156.532031,24.1074139 156.619921,22.7304746 156.795703,21.5703125 C156.971485,20.4101504 157.238084,19.4550819 157.595508,18.7050781 C157.952931,17.9550744 158.412888,17.401369 158.975391,17.0439453 C159.537893,16.6865217 160.205855,16.5078125 160.979297,16.5078125 C161.717582,16.5078125 162.326951,16.683592 162.807422,17.0351562 C163.041798,17.1992196 163.28203,17.4335922 163.528125,17.7382812 C163.77422,18.0429703 164.014452,18.4179665 164.248828,18.8632812 L164.248828,5.13476562 L167.60625,5.13476562 Z M160.0125,25.8242188 C160.0125,28.2148557 160.170701,29.8847609 160.487109,30.8339844 C160.815236,31.7832079 161.389449,32.2578125 162.209766,32.2578125 C162.959769,32.2578125 163.504686,31.7656299 163.844531,30.78125 C164.184377,29.7265572 164.354297,28.1035266 164.354297,25.9121094 C164.354297,23.7089734 164.184377,22.0800834 163.844531,21.0253906 C163.504686,20.0410107 162.959769,19.5488281 162.209766,19.5488281 C161.412887,19.5488281 160.844533,20.0175734 160.504687,20.9550781 C160.176561,21.82227 160.0125,23.4453006 160.0125,25.8242188 Z" id="Forward" fill="#FF6174"></path>
        </g>
    </g>
</svg>